<svg width="83" height="20" viewBox="0 0 83 20" fill="none" xmlns="http://www.w3.org/2000/svg">
    <path d="M60.3088 16.1947L55.8825 9.99852L60.3088 3.80234C60.9153 2.9531 61.2408 1.93816 61.2408 0.896582V0H53.7433L51.2431 3.50052L48.7429 0H41.2454V0.896582C41.2454 1.93816 41.5708 2.95606 42.1774 3.80234L46.6037 9.99852L42.1774 16.1947C41.5708 17.0439 41.2454 18.0589 41.2454 19.1005V19.997H48.7429L51.2431 16.4965L53.7433 19.997H61.2408V19.1005C61.2408 18.0589 60.9153 17.0439 60.3088 16.1947ZM71.2385 0C63.741 0 62.4894 0 62.4894 0V19.997C62.4894 19.997 63.738 19.997 71.2385 19.997C78.739 19.997 82.4878 16.248 82.4878 9.99852C82.4878 3.74908 78.739 0 71.2385 0ZM71.2385 13.7476H69.9899V6.24945H71.2385C73.7387 6.24945 74.9873 7.49815 74.9873 9.99852C74.9873 12.4989 73.7387 13.7476 71.2385 13.7476ZM21.247 19.997H39.9938V14.9963C39.9938 14.3069 39.4346 13.7476 38.7452 13.7476H28.7445V12.4989H38.7422V7.49815H28.7445V6.24945H38.7422C39.4316 6.24945 39.9909 5.69019 39.9909 5.00074V0H21.247V19.997ZM12.4979 6.99808L8.24612 1.04749C7.77863 0.39059 7.02118 0 6.21344 0H0V19.997H7.49755V12.999L11.7493 18.9525C12.2198 19.6094 12.9772 20 13.782 20H19.9954V0H12.4979V6.99808Z" fill="white"/>
</svg>
